<?xml version="1.0" standalone="no"?>
<!DOCTYPE svg PUBLIC "-//W3C//DTD SVG 1.1//EN" "http://www.w3.org/Graphics/SVG/1.1/DTD/svg11.dtd" >
<svg xmlns="http://www.w3.org/2000/svg">
<metadata></metadata>
<defs>
<font id="urban_hook-upznot_included." horiz-adv-x="1139" >
<font-face units-per-em="2048" ascent="1638" descent="-410" />
<missing-glyph horiz-adv-x="569" />
<glyph horiz-adv-x="2048" />
<glyph horiz-adv-x="2048" />
<glyph unicode="&#xd;" horiz-adv-x="569" />
<glyph unicode=" "  horiz-adv-x="569" />
<glyph unicode="&#x09;" horiz-adv-x="569" />
<glyph unicode="&#xa0;" horiz-adv-x="569" />
<glyph unicode="!" horiz-adv-x="543" d="M33 1469q0 263 211 314q119 0 226 -218l22 -84q0 -249 -143 -798q-17 -242 -75 -242l-60 -12l-15 36v85q0 99 -143 640zM183 188q0 116 114 217q75 -61 75 -242v-36q0 -81 -75 -133h-53q-61 101 -61 194z" />
<glyph unicode="&#x22;" horiz-adv-x="727" />
<glyph unicode="#" />
<glyph unicode="$" d="M-8 965v17q68 368 382 368v70q0 97 120 158h20v-18l-20 -210l161 -35q0 96 120 158l41 -35q-61 -64 -61 -123v-17q302 -185 302 -333v-36q-13 -52 -161 -52q0 168 -181 280v-315q0 -223 121 -263q211 -59 301 -210v-18q-58 -150 -321 -315l60 -298l-20 -18h-20 q-101 153 -101 298l-201 -35l20 -227h-40q-48 0 -100 227q-301 31 -301 245v141l40 35h40q87 -333 181 -333h40v17q0 182 -40 281l20 105l-20 140h20q-34 140 -241 140q-161 65 -161 211zM92 947q0 -175 302 -175v17l-20 88l20 52l-20 71h20l-20 17v281q-222 0 -282 -316 v-35zM494 754q0 -35 141 -70v18l-20 245v228l20 17v18l-141 70v-526zM514 211l20 -175l181 35q-54 543 -120 543l-20 17h-61v-420zM755 491l41 -368q180 118 180 228q-24 51 -221 175v-35z" />
<glyph unicode="%" horiz-adv-x="1821" />
<glyph unicode="&#x26;" horiz-adv-x="1366" />
<glyph unicode="'" horiz-adv-x="391" />
<glyph unicode="(" horiz-adv-x="682" />
<glyph unicode=")" horiz-adv-x="682" />
<glyph unicode="*" horiz-adv-x="797" d="M-151 1391v12l21 23h21q211 -251 508 -540l72 188q-41 111 -62 340q19 81 62 118h10q67 0 125 -317l-31 -224q0 -41 62 -188q223 106 373 106q73 0 83 -141l-10 -71l-73 12l-145 -35v-12l228 -23q67 0 114 58l21 -23v-106q0 -39 -145 -82v12l-11 -12q-176 12 -279 47h-42 q114 -297 156 -482v-23l-21 -24h-11l-228 411q-97 127 -124 130q-49 -67 -259 -212l-31 -35l-11 12l-186 -259q-65 74 -72 153v23q29 85 206 271q125 197 125 235q-335 231 -446 658zM502 768h21v-12l41 12l-20 94h-11z" />
<glyph unicode="+" horiz-adv-x="1196" />
<glyph unicode="," horiz-adv-x="569" />
<glyph unicode="-" horiz-adv-x="636" d="M-100 827q-4 27 125 47q547 42 552 7l49 -54q-6 -79 -42 -82l-181 -19l-27 -3l-245 -26q-125 -13 -226 96z" />
<glyph unicode="." horiz-adv-x="627" d="M29 259v27q0 155 277 205h9q98 0 178 -107q36 -56 45 -142l-9 -27h9l71 27l9 -9v-9l-89 -54q-106 -169 -232 -169v9l-9 -9l-45 9h-9q-38 0 -160 -89h-9v10l134 106q-89 0 -170 222zM109 313q53 -232 188 -232q169 81 169 134v9q-20 169 -125 169v-9q0 -73 90 -205v-17 h-27q-72 68 -116 249h-54q-40 -36 -62 -36l-9 9v9l9 9v9h-9q-32 0 -54 -98zM225 349l9 9h9q34 -21 81 -196l-9 -9h-9q-23 0 -81 196zM324 63h26q47 0 81 54v9l-107 -54v-9z" />
<glyph unicode="/" horiz-adv-x="569" />
<glyph unicode="0" />
<glyph unicode="1" />
<glyph unicode="2" />
<glyph unicode="3" />
<glyph unicode="4" />
<glyph unicode="5" />
<glyph unicode="6" />
<glyph unicode="7" />
<glyph unicode="8" />
<glyph unicode="9" />
<glyph unicode=":" horiz-adv-x="569" />
<glyph unicode=";" horiz-adv-x="569" />
<glyph unicode="&#x3c;" horiz-adv-x="1196" />
<glyph unicode="=" horiz-adv-x="1196" d="M-175 42v7q254 520 254 664l12 130l-12 30q47 170 47 290v84l-12 69q0 47 312 84l12 53h-12l-81 -7l-23 15l58 229l-23 61l35 15h127q254 -17 254 -69l12 -53q-35 0 -58 -61l23 -46q-20 -99 -58 -99l-11 8h-12v-54h12q393 0 393 -84l23 -15v-8q-35 -70 -35 -229l-11 -7 l11 -23q0 -253 243 -687l104 -275q0 -98 -624 -98l-93 -8v-8l-115 8h-347q-405 0 -405 84zM-105 72h11q358 112 786 122h70q290 0 566 -84v8q-69 229 -254 587q-70 178 -70 351q0 158 35 245q-66 61 -532 61q-282 0 -312 -61q-26 -310 -58 -420l12 -8v-23l-23 -206v-23h11 l12 77h23q23 0 23 -23q-105 -443 -219 -534l-12 7v8q162 314 162 427v31h-12q0 -71 -219 -542zM160 385v8q8 114 35 114l23 -15q-8 -115 -46 -115zM183 904q0 15 58 15v31l-23 22v8h12l81 -15l-24 23v30h12l35 -15h11l-34 30l34 16h23q39 0 81 -23h12v7l-35 84l12 8h11 l47 -23q14 -57 46 -61q40 76 58 76l23 -15v-38l-12 -38l93 46h11q23 0 35 -46l-12 -31h70l23 -15v-15l-23 -23v-8q58 0 58 -68l-24 -16l35 -7q-17 -63 -46 -84l23 -15q0 -16 -35 -16l12 -7v-8q0 -15 -46 -15l11 -38l-11 -8h-12l-35 8v-16l12 -38l-35 -15q-23 0 -23 23h-11 q0 -23 -24 -23h-11l-12 8h-11l-12 -8v-8l12 -23l-12 -7h-11l-12 7q-20 0 -23 39l-12 7h-11q0 -38 -23 -38h-12q0 31 -23 31l-12 -8q0 14 -69 38q0 -23 -23 -23l-23 15l23 31h-35l-34 -15h-12l-23 38v8l23 22q-35 0 -35 31l-23 15h12l-35 46v8l23 22l-23 23l23 23v8 q-58 5 -58 23zM334 72q0 -76 474 -76q316 0 543 46v15q-66 55 -404 99q-294 -8 -602 -53zM392 1484l57 7h151l81 -7l11 7v46q-35 28 -35 54v15q0 25 81 30l-11 8v61l-231 30h-24l24 -15l-12 -53v-61l-23 -15h-12v129l12 8v7h-23zM484 1392h127v61h-11l-116 8v-8l12 -7 l-12 -39v-15zM519 1636v61h23l11 -7h12q-16 -54 -35 -54h-11z" />
<glyph unicode="&#x3e;" horiz-adv-x="1196" />
<glyph unicode="?" d="M59 1148q0 162 633 338q148 26 284 26q344 0 580 -151l11 -35v-18q-52 -209 -738 -498q-380 -120 -380 -240l-10 -44v-36q0 -141 73 -400l-158 -44q-35 0 -84 356l-11 62l21 80l-10 9v8q57 130 316 214q791 315 791 524q-97 133 -464 133h-105q-373 0 -559 -231 q0 -53 179 -71v-9q-80 -71 -169 -71q-200 16 -200 98zM323 -282q175 214 274 231q10 26 63 26h11l42 -35q-86 -59 -148 -133q-105 -98 -200 -98h-42v9z" />
<glyph unicode="@" horiz-adv-x="2079" d="M217 699q0 271 210 486q150 113 301 113h9q382 0 536 -382l17 -122v-52q0 -284 -310 -435l-126 -26h-67q-128 0 -277 139q-133 140 -142 279v8q44 356 318 356q235 -43 235 -295q-101 -295 -193 -295q0 -15 -58 -35v-18q85 -34 192 -52q361 79 361 296v35q0 231 -218 391 q-139 86 -294 86q-245 0 -393 -243q-26 -48 -42 -182q0 -342 377 -600q129 -69 251 -69q336 0 637 486q84 172 84 296q0 280 -352 478q0 17 -42 17q-96 69 -142 69l-51 53l9 8h8l25 -8v17q246 -23 478 -235q123 -150 134 -304q0 -411 -394 -773q-198 -174 -444 -174 q-143 17 -226 61q-411 278 -411 626zM443 768q0 -159 210 -321q0 141 159 182l17 26v26q-36 191 -92 191q0 26 -134 52q-124 0 -160 -104v-52z" />
<glyph unicode="A" horiz-adv-x="1304" d="M-407 339l22 18l83 -5l21 -21q222 36 431 262q-352 23 -349 85l110 98l42 -3l310 -41q270 338 297 792q79 304 121 304h1l20 -22l20 -2l-45 -433l17 -418l29 -210l317 42l1 21q-43 2 -219 201l1 21l89 78q198 -213 383 -233l126 13l19 -23l-2 -42q-195 -107 -204 -277 l-44 -40l-38 66l72 161l-21 2l-465 -95l-2 -41l20 -1q742 -140 742 -543q0 -13 -1 -27q-21 -368 -359 -412l-20 1q-317 21 -471 883l-414 69q-254 -298 -511 -298q-15 0 -29 1l-41 3zM343 672l253 23l-44 346l-20 1q-6 -103 -188 -350zM768 443q145 -734 396 -750 q211 38 224 267l4 60q-130 410 -623 443z" />
<glyph unicode="B" horiz-adv-x="1248" d="M-76 1413q38 7 38 85q0 11 -1 23q116 281 279 311l19 4q64 12 121 12q272 0 400 -258l11 -93l42 9q151 86 242 102l107 20q47 8 88 8q216 0 302 -226l19 -113q8 -45 8 -90q0 -384 -554 -820l-188 -92l49 -179q15 3 26 3q30 0 33 -20l2 -15l-44 -66l63 -45 q207 239 379 271l90 16l41 -21q8 -48 -325 -160q-113 -137 -113 -199q0 -5 1 -10l53 -91l8 -43q7 -41 -184 -120l-35 -6l-62 32l12 147q-140 172 -421 298l-3 15l78 86l90 16l99 -40l-15 84q-3 18 -40 18q-21 0 -54 -6q-206 17 -214 62q-131 -96 -203 -109l-21 10l-3 14 q107 166 107 378q0 77 -14 161l-20 112q-31 180 -293 525zM112 1524q159 -246 204 -311l132 -5l36 7q199 83 199 237q0 22 -4 45l-2 13q-32 184 -415 218l-84 -28q-67 -58 -67 -157q0 -9 1 -19zM378 1064l31 -66l39 -225l395 318l37 7l41 -21q-100 -83 -100 -299 q0 -103 23 -237l4 -130l72 13q444 81 542 780l-7 43q-42 243 -284 243q-52 0 -112 -11q-271 -49 -326 -138.5t-232 -224.5zM430 436l234 -44l-3 14l1 319l-1 46l-19 66l-17 -3q-203 -106 -203 -314q0 -40 8 -84z" />
<glyph unicode="C" horiz-adv-x="1350" d="M0 982v154q0 383 361 525l163 21h99q287 0 557 -284h33l-33 153v65l66 45h32q58 0 164 -569l33 -21v-23l-98 -43h-131l-263 349q-304 241 -524 241q-295 0 -295 -481q0 -754 566 -1177l75 -22l69 22l38 75l-12 113l-48 180l99 87h65l33 -262v-21q0 -328 -328 -328 q-574 151 -721 1201zM655 741l27 56l152 -208l-6 -91q-5 -11 -16 -11q-33 0 -119 93l-33 52zM819 829l33 19h33l131 -213l-33 -20h-32q-132 103 -132 214z" />
<glyph unicode="D" horiz-adv-x="1120" d="M-281 1274q-1 7 -1 15q0 156 355 409q249 97 367 114q60 8 116 9q474 0 690 -596l29 -75l13 -13l8 -32l10 -43l13 -108l1 -15q-99 -466 -326 -528q-4 -29 -381 -131l-297 4l-18 -18l5 -46q14 2 25 2q38 0 41 -24l3 -31l-114 -109l5 -46q200 184 315 201l104 14l2 -16 q-19 -44 -217 -139q-116 -145 -116 -270v-10l36 -135l-224 -79l-22 13l-12 108q-123 443 -269 443q-7 0 -13 -1l-1 14l75 73l63 9h105l19 18l-13 123q-10 -1 -19 -1q-116 0 -194 205q-1 5 -1 10q0 131 354 412l-2 16q-24 212 -207 531l-21 -3q-94 -221 -223 -265zM83 672 l78 -129l20 3v5q0 51 85 178l-19 169q-165 -115 -165 -213q0 -6 1 -13zM265 1678l161 -490l34 -58q217 108 339 125l41 6l45 -25q-405 -417 -405 -519v-5q-17 -174 -106 -186l-33 -82q194 -75 329 -75q31 0 59 4q377 150 377 542q0 50 -6 103q-45 404 -474 649 q-94 31 -185 31q-36 0 -72 -5zM464 1036l5 -45l133 128l-20 -3q-121 -54 -118 -80z" />
<glyph unicode="E" horiz-adv-x="828" d="M-5 922q-20 120 -20 224q0 485 438 589l56 14q298 -49 359 -416q1 -28 1 -54q0 -449 -257 -510l-29 -7q-52 -12 -102 -12q-117 0 -226 66l-28 -7q133 -453 212 -608l67 -76l71 -16l66 39l55 96l16 130l-11 93q-36 81 -36 122q0 35 26 41l167 40q2 -48 2 -92 q0 -489 -273 -554l-56 -14q-16 -4 -32 -4q-173 0 -359 439l-10 30q-34 63 -64 243zM218 1151q102 -314 264 -313q23 0 48 6q111 154 111 353q0 44 -5 90q-15 247 -194 347l-63 19l-65 -21q-92 -22 -96 -481z" />
<glyph unicode="F" horiz-adv-x="1026" d="M-132 1739v13q-1 23 196 72q344 -209 731 -284q23 -21 638 -106v-22q-91 -55 -151 -286h-45q-40 0 -62 95l30 166h-15q-306 23 -806 152l-15 12q-183 59 -183 83h-15l1 -12q126 -169 245 -688l15 -84h46l304 13l30 -36q-80 -47 -167 -47l-166 -1l-31 -24l31 -202l1 -119 v-71v-36q-57 -308 -120 -308l-92 -13h-30l-46 35q91 146 91 345l-1 108q-1 312 -62 332l30 35l-10 38q-17 34 -82 307q-154 376 -259 511z" />
<glyph unicode="G" horiz-adv-x="1020" d="M-424 214q242 17 421 281l30 2q-80 -210 -161 -216l2 -22l58 4l141 -57l-307 12l-6 -2l-174 -47zM7 356l88 7l-64 470q-9 131 -9 243q0 657 324 682l87 6q9 1 17 1q225 0 489 -428l-11 108l-22 306l55 52l58 5l63 -44l1 -23l-21 -120l111 -703l-28 -26l-116 -9h-2 q-66 0 -205 412q-215 301 -441 394l-29 -2q-128 -10 -150 -698l13 -142l-2 -87l18 -142l36 -194l837 228l30 -22l2 -23q-334 -641 -628 -663l-29 -2q-12 -1 -24 -1q-237 0 -357 375l-88 -6zM476 -13q152 11 433 508l-29 -2q-576 -129 -576 -178q0 -141 172 -328z" />
<glyph unicode="H" horiz-adv-x="1157" d="M-189 634l2 33q3 55 271 268l39 755q4 78 184 93l24 -34l-28 -33l-1 -33l-63 -731l179 -7l179 -40l-43 668l108 96l51 -2l19 -5l30 -30l-31 -132q0 -482 43 -636l233 25q3 52 -195 207l-24 35l1 33l79 30q264 -244 349 -247l155 27l24 -34l-2 -33q-211 -111 -222 -325 l19 -134l-26 1l-72 103l5 100l61 197l-25 1l-363 -52l-2 -34q417 -266 417 -860q0 -44 -2 -89q-25 -259 -208 -259h-11q-220 8 -351 1181l-17 23l-33 12q-362 -43 -366 -120l-14 -266l-34 -166q73 -3 73 -63v-6l-1 -33l-82 -97l-78 3l-71 103l-1 16l4 50l43 332l7 133 l-208 -58zM-29 728l53 4l51 25l21 96l-72 -58zM231 784l288 47l-107 31l-82 17l-94 5zM807 496q96 -770 192 -774l25 -1l11 199q-72 603 -226 609z" />
<glyph unicode="I" horiz-adv-x="994" d="M-254 -29l60 70q38 -101 147 -102q7 0 14 1l22 1q431 25 431 301q0 16 -1 32l12 112l-7 89l-2 22l28 445q-454 138 -522 237l83 49q330 -131 439 -131h9q21 90 188 99l22 2l47 -42l-32 -135l111 -15l282 16l47 -43l-170 -54l-305 -17l-50 -690l22 2q280 192 507 205 l152 9l2 -23q4 -49 -256 -80l-415 -246l23 -21l2 -21l-80 -93l-65 -3l-70 41q-266 -105 -405 -113l-63 -3q-16 -1 -30 -1q-140 0 -175 79zM115 1600l184 -50l9 -1l1 8q-49 87 -49 123v5l4 24q71 147 121 147h4q238 -84 238 -198q0 -8 -1 -15q18 -3 44 -161l9 -1 q186 102 353 102q36 0 71 -5l28 -4q164 -57 164 -126q0 -4 -1 -8l-3 -17q-82 -100 -163 -115q-87 -21 -248 -26l-258 -8q-6 -41 -67 -41q-15 0 -34 3l-63 26l-276 11l2 9l-11 -7l-9 1q-318 114 -318 169q0 123 269 155zM3 1437q-1 -13 163 -83q266 1 267 18l-245 108l-39 4 q-9 1 -19 1q-70 0 -127 -48zM368 1685q-6 -58 132 -209v-5q0 -41 61 -52l11 8v8q-55 305 -160 314l-42 -38zM778 1408l17 -19l19 -1q24 -2 48 -2q155 0 312 95l-17 20l-50 11l-53 -1q-180 -24 -275 -95z" />
<glyph unicode="J" horiz-adv-x="1107" d="M-75 1248q2 139 241 207l182 -32h9l1 9q-63 99 -62 137l1 28q53 182 102 182h1q255 -67 252 -207q18 -1 61 -175h9q199 166 387 166h9h28q173 -44 172 -129l-1 -19q-67 -124 -143 -152q-82 -34 -191 -63l-9 -10l-36 11l-247 -44q-1 -56 -86 -56h-6l-64 20l-267 -24l1 10 l-10 -10h-9q-327 88 -325 151zM66 12q4 177 383 446l46 18v-9q-113 -142 -251 -198q-37 -50 -38 -105l-1 -58q-3 -188 314 -342l219 -24q225 7 274 25v6q0 223 -280 653q-150 309 -149 368l47 78l1 19h-9h-3q-125 0 -476 -174l-10 -10h-9q137 216 619 325q252 67 514 67h36 h28l17 -20q-125 -131 -166 -131h-1h-18q-397 -2 -431 -40q31 -180 370 -748q59 -176 59 -274v-6q-1 -72 -232 -246q-149 -43 -309 -43h-21q-409 24 -515 366zM71 1284q0 -15 163 -80q257 25 257 44l-245 100l-37 1h-5q-77 0 -133 -65zM406 1595q-2 -66 143 -224 q-1 -52 62 -59l10 10v9q-75 339 -177 341l-38 -47v-30zM822 1319l17 -20h18h7q170 0 335 137l-19 21l-49 7l-51 -5q-172 -42 -258 -131v-9z" />
<glyph unicode="K" horiz-adv-x="1279" d="M-49 1604q80 75 165 81l26 -20l7 -80l48 -439q8 -22 8 -45t-8 -48l14 -76l722 567q260 177 419 247q51 -13 52 -31v-11q-5 -26 -312 -205q-267 -185 -378 -302q299 -133 459 -133q14 0 28 1q98 -5 101 -38q-50 -39 -189 -83l-121 -9h-7q-86 0 -431 137l-321 -252l18 -78 l4 -42q-3 -28 -3 -56q0 -39 6 -78l9 -63l11 -88q46 -255 91 -367v-8q0 -80 -161 -106l-12 -1l-38 20q-68 677 -199 1516z" />
<glyph unicode="L" horiz-adv-x="910" d="M-107 22q130 230 231 583l35 138l12 92l8 71l15 136v87l2 55l4 114l-5 53l-5 43q-41 206 -128 257l-7 26l8 2q17 23 95 44q4 1 9 1q59 0 123 -145l29 -109l23 -102l4 -82l5 -63v-65l-6 -102l-9 -121q-18 -139 -49 -279q-94 -295 -185 -471l-17 -38v-10l15 3l66 22l124 41 l44 8l7 2h39q209 0 236 -20l270 -109q-1 -23 77 -55l8 1l1 9l2 54l-13 50l3 80q22 27 75 76q36 -10 36 -42q0 -7 -2 -14q67 -335 188 -386l6 -34q-48 -46 -74 -51l-66 -12q-95 81 -225 152q-164 115 -305 162l-7 8q-22 8 -151 42q-28 3 -159 4l-99 -36l-223 -93l-15 -2l-7 7 l-7 -10l-8 -2z" />
<glyph unicode="M" horiz-adv-x="1459" d="M-204 1758q22 30 89 49l40 16q205 -53 214 -68l-3 -42l1 -9q41 -61 153.5 -197t139.5 -163t72 -76q85 -62 89 -97l17 3q57 74 156 120q67 46 211 95l175 98q105 72 225 186l54 40l80 39q52 -2 54 -17l3 -24q-170 -209 -168 -380q-2 -26 -3 -61q0 -158 45 -497 q75 -578 172 -611l3 -53l-39 -29l-44 -17l-59 4q-34 0 -87 72q-48 103 -97 283l-19 143l-37 216l-7 59l-7 118q-10 73 -10 174q0 128 16 298q-346 -153 -430 -242q-55 -82 -55 -155q0 -13 2 -25l3 -25q41 -78 176 -237q51 -45 104 -136q37 -35 94 -139l2 -17q3 -20 -163 -62 q-119 16 -193 106q-181 205 -202 336l-12 56l-2 17l-10 76q-74 125 -385 458l-8 -1l5 -42l3 -48l11 -53l-2 -101l12 -125l5 -82l8 -140l27 -250l13 -131l25 -155l33 -109l51 -81l105 -112q-46 -51 -152 -51q-29 0 -63 4q-7 -1 -13 -1q-34 0 -60 30l-30 226l-18 143l-17 126 l-14 109l-19 151l-5 33l-14 110l-42 326l-27 407q-56 58 -169 117z" />
<glyph unicode="N" horiz-adv-x="1095" d="M-216 1333q85 86 138 89q209 -130 505 -455l176 -220l41 -60q59 -69 83.5 -98t51.5 -62l13 1l-15 361l-6 134l8 125q21 98 43 188q153 349 317 395q298 136 634 151l13 -9v-11q-286 -66 -540 -164q-154 -63 -223 -272q-68 -180 -68 -472q0 -58 3 -119l17 -103l2 -31 l6 -155q10 -237 108 -419v-6q0 -99 -174 -105l-13 -1q-30 -1 -99 203l-340 461q-63 46 -121 140l-13 -1q46 -91 57 -121.5t61 -245.5l1 -21v-10l50 -256v-16q0 -189 -207 -250l-51 -3l-53 39q-2 64 136 140l7 114l-2 51q-25 577 -531 1053z" />
<glyph unicode="O" horiz-adv-x="991" d="M-177 -274q-1 6 -1 12q0 62 76 173l20 319h-9q-48 0 -55 64l27 21l18 2q7 1 14 1q91 0 108 -146l-9 -10l1 -9l19 2l64 114l-5 43l-1 9l-60 100l-14 42l-2 17l-12 39l-6 38q-18 64 -33 129l-12 105l-8 70l-6 52l-17 227q51 339 206 466q165 107 368 131q28 3 56 3 q238 0 413 -242q48 -87 60 -196q1 -6 1 -12q0 -76 -123 -90l45 -233l8 -70l38 4q40 5 68 5q66 0 69 -25l2 -17q4 -35 -125 -85l-38 -5l1 -8q-23 -718 -478 -769l-9 -1h-6q-148 0 -310 157l-9 -1q-16 -2 -31 -57l23 -41l-36 -22l1 -9q49 6 88 6q133 0 140 -67l-9 -10l-9 -1 l-1 9l-8 -10l-10 -1l-126 12q-187 -21 -231 -238l-54 -33q-63 16 -71 36zM12 -5l1 -9l9 1l65 25l-51 29l-19 -2zM101 976l14 -122q63 -403 103 -403h1q103 207 594 421l-1 8l-10 8l-1 9l-6 53l-5 43l-5 54q-37 143 -90 332l-4 19l-29 48q-79 178 -140 178h-5q-24 16 -75 16 q-11 0 -23 -1l-85 -10q-123 -14 -221 -334q-19 -94 -19 -194q0 -61 7 -125zM254 1073q-1 8 -1 17q0 74 80 134l27 3h1q21 0 36 -85q15 -187 15 -279q0 -89 -14 -91l-44 -33q-63 5 -65 29l-14 122l-2 18zM264 306l81 -115q124 -119 188 -119h7q93 27 162 178l25 37l-1 9 l22 56q51 225 59 325l10 80l-11 8q-227 -26 -486 -356q-60 -68 -56 -103zM469 1115q17 109 101 118l50 -13q15 -253 15 -351q0 -61 -6 -62q-97 9 -107 93z" />
<glyph unicode="P" horiz-adv-x="1099" d="M-410 303q182 133 208 429l23 16q9 -65 9 -114q0 -105 -41 -135l11 -17l75 36l104 20l-246 -141l-4 -5l-117 -122zM-172 510q94 196 274 450l-38 472h-6l-40 -7q-38 1 -38 181v36l27 23l14 -1q10 0 24 -56l18 -16l134 68h7l30 -56l-7 -40l4 -48l53 -1l91 -3l193 54 q170 77 350 150q92 54 182 62q38 -44 58 -109l17 -85l22 -80l17 -100q9 -66 9 -129q0 -145 -46 -280l-19 -67q-40 -47 -83 -69q-54 24 -118 64q-36 47 -237 133l-90 14h-120h-13q-91 0 -165 -27l-48 -21l-13 -35q16 -172 16 -364q0 -88 -3 -180l-20 -391q-20 -30 -108 -30 h-11l-46 1q-25 13 -25 26l1 7l47 415l5 127l-17 257h-7zM241 1412l22 -297q73 43 173 68q24 15 210 27q204 -29 318 -96l39 -8q47 87 47 189q0 83 -32 176l-33 59h-6l-264 -57q-235 -63 -370 -63h-12z" />
<glyph unicode="Q" horiz-adv-x="1363" d="M-4 1051q0 565 338 701q133 72 226 72h52q338 -45 338 -297v-13q0 -35 -41 -35v-12q287 -335 287 -702q0 -125 -72 -392l62 -72v-12q-32 -96 -93 -96l-61 49q0 -24 -30 -24v-12q205 -143 276 -166v11q-20 60 -20 214v24q0 269 133 452h10q-72 -221 -72 -393v-35 q0 -327 144 -428l51 -59v-11q0 -67 -61 -108h-41q-21 0 -103 155q-380 212 -380 297q-222 -96 -348 -96q-200 0 -431 298q-164 277 -164 690zM160 1062q48 -416 154 -595q200 -308 471 -308q135 104 135 178q-268 178 -288 214v12q10 176 51 190h20q177 -109 288 -226 l20 191q1 15 1 30q0 102 -31 184h10q-76 262 -308 488l-246 238v11l21 36v12h-42q-161 0 -256 -511v-84v-60zM376 1122q27 95 51 95h31q28 0 40 -249q-15 -48 -30 -48h-21q-35 0 -71 202zM540 1181q27 79 61 95h31q28 0 41 -214v-35q-17 -48 -72 -48q-33 0 -61 202z M1586 -364q33 118 62 143h30l31 -36v-24q-52 -79 -103 -108z" />
<glyph unicode="R" horiz-adv-x="1024" d="M-95 606l93 70l8 1h1q39 0 131 -271l9 1l-40 351l-10 71l-10 70l1 59l-70 431l-19 69q212 320 353 335l27 3q16 2 32 2q205 0 436 -282q61 -104 70 -170q5 -33 5 -65q0 -293 -400 -501l-53 -17q6 -42 537 -108q275 -90 362 -90q7 0 13 1l54 18l23 -33l2 -12 q4 -28 -100 -81q-498 -636 -579 -644q-101 -71 -166 -78q-4 -1 -9 -1q-71 0 -105 142q-7 51 -7 99q0 304 291 465l46 5l21 -20l3 -24q-9 -47 -202 -153q-39 -140 -39 -224q0 -22 3 -40q30 -155 91 -156q3 0 5 1q69 8 543 640q-425 119 -823 158q-107 48 -185 51l10 -70 l46 -516q-100 -94 -135 -98l-19 -2q-161 483 -238 566zM128 1461l105 -605l117 -35q466 51 471 419l-3 23q-26 179 -292 348q-133 59 -212 59q-11 0 -20 -1q-158 -39 -158 -184q0 -11 1 -23zM236 1425l28 3l44 -246l23 -166l-9 -1q-28 -3 -86 410z" />
<glyph unicode="S" horiz-adv-x="920" d="M-148 1348q65 337 494 344l65 -14q219 -47 419 -410l13 68l15 80l15 127q46 240 91 240h4q31 20 65 20q13 0 26 -3l6 -13l10 -2l-45 -133l-22 -115q-90 -468 -118 -817l-9 -46q-6 -31 -123 -33l-10 2l-23 30l25 77l6 34q11 56 11 113q0 252 -208 535q-101 127 -258 175 l-29 7q-38 8 -71 8q-190 0 -240 -262l-2 -12q-4 -21 -4 -42q0 -196 345 -411q594 -468 656 -748l15 -122q-46 -238 -463 -238q-47 0 -99 3l-46 10q-154 34 -235 253q-18 37 -18 117q0 24 2 52q22 111 281 112q15 0 32 -1l8 -13l-2 -12q-12 -63 -97 -63h-12q-11 1 -21 1 q-77 0 -84 -35q-5 -28 -6 -54q0 -176 230 -302l57 -12q47 -10 88 -10q165 0 252 161q4 22 4 46q0 240 -425 651q-322 248 -504 417q-64 132 -64 210q0 16 3 30z" />
<glyph unicode="T" horiz-adv-x="1331" d="M-246 1638q88 64 265 71l207 7l49 2l290 -20q107 -17 287 -17q86 0 189 4l287 11l276 30l22 -30l1 -20q-122 -69 -157 -210q-117 -429 -136 -442l-49 -12q-45 14 -72 58l-4 61q35 290 133 494l-80 -3l-78 -3l-89 -13l-198 -8l-90 7l-14 -111l-11 -82l6 -89l-2 -89v-71 q2 -76 2 -132.5t-2 -93.5l10 -99l-3 -75l2 -86l8 -100l7 -104l12 -64l25 -119l34 -86l72 -153l-122 -24l-55 -16l-72 -25q-42 53 -81 409l-7 135l-17 244l9 220l1 148l4 101l2 119l-2 165q-5 79 -71 79h-3l-486 12l-49 -1q272 -281 283 -479q-58 -43 -117 -45h-10 q-26 -1 -69 181q-66 135 -283 315h-4q-47 0 -50 49z" />
<glyph unicode="U" horiz-adv-x="955" d="M-131 -57l1 22q132 174 241 1034l14 205l-9 135l-8 241l95 30q73 -11 73 -31q0 -129 -36 -366l-12 -135v-53l-7 -162q-20 -287 -31 -307l-89 -428q362 108 569 108h7l32 -1l239 -23l1 10q-221 300 -244 557q-19 92 -19 207v12l2 168q2 165 106 165h1l32 10q40 0 50 -220 l-1 -94v-27q0 -678 443 -858q-32 -45 -47 -88q-26 -29 -63 -29q-26 0 -56 14q-290 122 -602 126h-8q-235 0 -433 -182q-1 -63 -209 -82zM310 534l77 14l38 -32l2 -82l-20 -24l-76 -12l-18 16zM528 551l78 11l37 -33v-82l-21 -24l-76 -9l-17 16z" />
<glyph unicode="V" horiz-adv-x="1057" d="M-306 1042q2 36 174 223l45 17l66 -9l9 -97q68 20 102 20q29 0 34 -14q-5 -13 -5 -30q0 -29 14 -68l-10 -4q67 -193 446 -695l144 -159l11 4q-27 77 -27 221q0 299 116 890q58 134 173 223l-13 74q-178 -202 -292 -245q-50 -2 -56 13l-13 39l39 71q21 8 31 -21l15 -6 l11 4q117 44 305 318l75 39l36 -31q-17 -68 -17 -131q0 -73 23 -137q72 -205 197 -273l-8 -14l-11 -4q-20 -8 -41 -8q-113 0 -250 224q-64 -25 -108 -480q-37 -287 -37 -443q0 -115 20 -158v-34l87 -214l79 -116q6 -17 -109 -119l-56 -21h-3q-48 0 -316 260 q-492 576 -582 835l-21 59l-12 -4l-70 -50q-7 21 -40 8l-15 6l-4 10l-16 84l-23 -9l-63 -70l-30 12z" />
<glyph unicode="W" horiz-adv-x="1250" d="M-133 1084q-1 3 -1 6q0 31 104 92l73 22q269 -448 351 -697l9 -67l8 -26l33 -18l-9 480l-157 354q-2 5 -2 11q0 52 142 139l25 7q4 1 8 1q41 0 99 -121q40 -120 67 -408q39 -117 359 -310q-58 255 -58 451q0 44 3 85q139 279 539 582l-4 12q-31 -9 -62 -9q-85 0 -174 66 l-4 12l33 65q77 -49 165 -49q50 0 103 16l211 60q3 1 7 1q25 0 50 -53l-136 -122q-80 -184 -80 -334q0 -80 23 -150l4 -13l37 -30l-8 -17l-12 -3q-6 -2 -13 -2q-48 0 -103 106q-10 50 -10 111q0 115 35 268l-25 -7q-453 -337 -453 -591q0 -44 14 -86l120 -613l79 -198 q-34 -50 -161 -87l-17 9l-8 25l-25 159q-57 173 -433 411q-9 -548 -40 -824l-83 -37l-86 -25q-3 -1 -7 -1q-25 0 -51 53q15 14 15 58q0 145 -156 617q-113 343 -334 606z" />
<glyph unicode="X" horiz-adv-x="1271" d="M-311 -94l110 197l187 24q298 55 469 670q-293 478 -318 633q69 204 156 220l25 5l13 -81q183 -407 290 -532q172 243 453 442l-2 11l-12 -2l-50 -9l-133 -49q-64 4 -68 24q336 142 408 253l37 7l20 -44q-64 -235 -64 -370q0 -25 2 -47l-25 -4l-17 104l-11 70 q-153 -175 -378 -357l-105 -138q104 -236 666 -736q-98 -185 -160 -197h-2q-59 0 -524 500l-115 158l-25 -5q-32 -200 -344 -647q-146 -110 -372 -151l-12 -3l-15 10l-10 -14l-13 -3q-53 14 -61 61zM-29 951l34 40l27 5l62 -35l3 -21l-35 -40l-14 -3l-76 42zM-6 1238l24 27 l26 5q41 -3 318 -519l-11 -14l-14 -2q-71 57 -324 472l-16 9z" />
<glyph unicode="Y" horiz-adv-x="962" d="M-216 -56q192 78 192 203q0 12 -2 24q19 3 19 43q0 18 -4 44q33 76 57 79l14 2q28 3 33 -32q2 -12 2 -25q0 -74 -53 -198l27 3q210 26 241 162q33 149 253 176l13 2q94 -45 113 -107l14 1l-40 273l-15 203q-124 -196 -398 -230q-13 -2 -25 -2q-251 0 -415 636l-14 94 q-6 38 -6 68q0 100 64 108l121 28l30 -22l2 -204q65 -442 312 -613l28 4q185 161 242 535l-49 236q-15 101 -15 173q0 162 76 171l81 23l54 6l31 -20l31 -214l10 -444l126 -865q29 -198 245 -632q-50 -31 -146 -43l-42 -5q-27 -3 -207 373q-189 236 -295 301q1 -5 1 -9 q0 -110 -397 -232l2 -12h7q55 0 159 -88l-24 -27h-9q-53 0 -181 61l-95 -12q-51 -54 -103 -60q-58 17 -65 64z" />
<glyph unicode="Z" horiz-adv-x="1251" d="M138 -71q216 562 414 840l-10 52q76 0 287 410q62 68 223 368q-345 -244 -691 -662q-36 -21 -149 -31l-21 21q21 83 53 641q57 42 96 42l85 -21q-43 -207 -43 -400v-42q717 673 914 673h11l32 -32v-10q-151 -171 -489 -778v-10h11l42 10l32 -31q-6 -32 -149 -74 q-340 -536 -340 -620h11q203 168 425 168q109 0 297 -73v10q-53 138 -53 305v31l43 42q18 0 63 -241q150 -316 309 -316l31 -42l-42 -42h-32q-107 0 -212 63q-163 -61 -266 -241h-21v11q0 87 233 272q-238 148 -446 148q-131 0 -340 -253q-134 -220 -180 -220h-43l-53 -11 h-11l-21 22v21z" />
<glyph unicode="[" horiz-adv-x="569" />
<glyph unicode="\" horiz-adv-x="569" />
<glyph unicode="]" horiz-adv-x="569" />
<glyph unicode="^" horiz-adv-x="961" />
<glyph unicode="_" />
<glyph unicode="`" horiz-adv-x="682" />
<glyph unicode="a" horiz-adv-x="1304" d="M-407 339l22 18l83 -5l21 -21q222 36 431 262q-352 23 -349 85l110 98l42 -3l310 -41q270 338 297 792q79 304 121 304h1l20 -22l20 -2l-45 -433l17 -418l29 -210l317 42l1 21q-43 2 -219 201l1 21l89 78q198 -213 383 -233l126 13l19 -23l-2 -42q-195 -107 -204 -277 l-44 -40l-38 66l72 161l-21 2l-465 -95l-2 -41l20 -1q742 -140 742 -543q0 -13 -1 -27q-21 -368 -359 -412l-20 1q-317 21 -471 883l-414 69q-254 -298 -511 -298q-15 0 -29 1l-41 3zM343 672l253 23l-44 346l-20 1q-6 -103 -188 -350zM768 443q145 -734 396 -750 q211 38 224 267l4 60q-130 410 -623 443z" />
<glyph unicode="b" horiz-adv-x="1248" d="M-76 1413q38 7 38 85q0 11 -1 23q116 281 279 311l19 4q64 12 121 12q272 0 400 -258l11 -93l42 9q151 86 242 102l107 20q47 8 88 8q216 0 302 -226l19 -113q8 -45 8 -90q0 -384 -554 -820l-188 -92l49 -179q15 3 26 3q30 0 33 -20l2 -15l-44 -66l63 -45 q207 239 379 271l90 16l41 -21q8 -48 -325 -160q-113 -137 -113 -199q0 -5 1 -10l53 -91l8 -43q7 -41 -184 -120l-35 -6l-62 32l12 147q-140 172 -421 298l-3 15l78 86l90 16l99 -40l-15 84q-3 18 -40 18q-21 0 -54 -6q-206 17 -214 62q-131 -96 -203 -109l-21 10l-3 14 q107 166 107 378q0 77 -14 161l-20 112q-31 180 -293 525zM112 1524q159 -246 204 -311l132 -5l36 7q199 83 199 237q0 22 -4 45l-2 13q-32 184 -415 218l-84 -28q-67 -58 -67 -157q0 -9 1 -19zM378 1064l31 -66l39 -225l395 318l37 7l41 -21q-100 -83 -100 -299 q0 -103 23 -237l4 -130l72 13q444 81 542 780l-7 43q-42 243 -284 243q-52 0 -112 -11q-271 -49 -326 -138.5t-232 -224.5zM430 436l234 -44l-3 14l1 319l-1 46l-19 66l-17 -3q-203 -106 -203 -314q0 -40 8 -84z" />
<glyph unicode="c" horiz-adv-x="1350" d="M0 982v154q0 383 361 525l163 21h99q287 0 557 -284h33l-33 153v65l66 45h32q58 0 164 -569l33 -21v-23l-98 -43h-131l-263 349q-304 241 -524 241q-295 0 -295 -481q0 -754 566 -1177l75 -22l69 22l38 75l-12 113l-48 180l99 87h65l33 -262v-21q0 -328 -328 -328 q-574 151 -721 1201zM655 741l27 56l152 -208l-6 -91q-5 -11 -16 -11q-33 0 -119 93l-33 52zM819 829l33 19h33l131 -213l-33 -20h-32q-132 103 -132 214z" />
<glyph unicode="d" horiz-adv-x="1120" d="M-281 1274q-1 7 -1 15q0 156 355 409q249 97 367 114q60 8 116 9q474 0 690 -596l29 -75l13 -13l8 -32l10 -43l13 -108l1 -15q-99 -466 -326 -528q-4 -29 -381 -131l-297 4l-18 -18l5 -46q14 2 25 2q38 0 41 -24l3 -31l-114 -109l5 -46q200 184 315 201l104 14l2 -16 q-19 -44 -217 -139q-116 -145 -116 -270v-10l36 -135l-224 -79l-22 13l-12 108q-123 443 -269 443q-7 0 -13 -1l-1 14l75 73l63 9h105l19 18l-13 123q-10 -1 -19 -1q-116 0 -194 205q-1 5 -1 10q0 131 354 412l-2 16q-24 212 -207 531l-21 -3q-94 -221 -223 -265zM83 672 l78 -129l20 3v5q0 51 85 178l-19 169q-165 -115 -165 -213q0 -6 1 -13zM265 1678l161 -490l34 -58q217 108 339 125l41 6l45 -25q-405 -417 -405 -519v-5q-17 -174 -106 -186l-33 -82q194 -75 329 -75q31 0 59 4q377 150 377 542q0 50 -6 103q-45 404 -474 649 q-94 31 -185 31q-36 0 -72 -5zM464 1036l5 -45l133 128l-20 -3q-121 -54 -118 -80z" />
<glyph unicode="e" horiz-adv-x="828" d="M-5 922q-20 120 -20 224q0 485 438 589l56 14q298 -49 359 -416q1 -28 1 -54q0 -449 -257 -510l-29 -7q-52 -12 -102 -12q-117 0 -226 66l-28 -7q133 -453 212 -608l67 -76l71 -16l66 39l55 96l16 130l-11 93q-36 81 -36 122q0 35 26 41l167 40q2 -48 2 -92 q0 -489 -273 -554l-56 -14q-16 -4 -32 -4q-173 0 -359 439l-10 30q-34 63 -64 243zM218 1151q102 -314 264 -313q23 0 48 6q111 154 111 353q0 44 -5 90q-15 247 -194 347l-63 19l-65 -21q-92 -22 -96 -481z" />
<glyph unicode="f" horiz-adv-x="1026" d="M-132 1739v13q-1 23 196 72q344 -209 731 -284q23 -21 638 -106v-22q-91 -55 -151 -286h-45q-40 0 -62 95l30 166h-15q-306 23 -806 152l-15 12q-183 59 -183 83h-15l1 -12q126 -169 245 -688l15 -84h46l304 13l30 -36q-80 -47 -167 -47l-166 -1l-31 -24l31 -202l1 -119 v-71v-36q-57 -308 -120 -308l-92 -13h-30l-46 35q91 146 91 345l-1 108q-1 312 -62 332l30 35l-10 38q-17 34 -82 307q-154 376 -259 511z" />
<glyph unicode="g" horiz-adv-x="1020" d="M-424 214q242 17 421 281l30 2q-80 -210 -161 -216l2 -22l58 4l141 -57l-307 12l-6 -2l-174 -47zM7 356l88 7l-64 470q-9 131 -9 243q0 657 324 682l87 6q9 1 17 1q225 0 489 -428l-11 108l-22 306l55 52l58 5l63 -44l1 -23l-21 -120l111 -703l-28 -26l-116 -9h-2 q-66 0 -205 412q-215 301 -441 394l-29 -2q-128 -10 -150 -698l13 -142l-2 -87l18 -142l36 -194l837 228l30 -22l2 -23q-334 -641 -628 -663l-29 -2q-12 -1 -24 -1q-237 0 -357 375l-88 -6zM476 -13q152 11 433 508l-29 -2q-576 -129 -576 -178q0 -141 172 -328z" />
<glyph unicode="h" horiz-adv-x="1157" d="M-189 634l2 33q3 55 271 268l39 755q4 78 184 93l24 -34l-28 -33l-1 -33l-63 -731l179 -7l179 -40l-43 668l108 96l51 -2l19 -5l30 -30l-31 -132q0 -482 43 -636l233 25q3 52 -195 207l-24 35l1 33l79 30q264 -244 349 -247l155 27l24 -34l-2 -33q-211 -111 -222 -325 l19 -134l-26 1l-72 103l5 100l61 197l-25 1l-363 -52l-2 -34q417 -266 417 -860q0 -44 -2 -89q-25 -259 -208 -259h-11q-220 8 -351 1181l-17 23l-33 12q-362 -43 -366 -120l-14 -266l-34 -166q73 -3 73 -63v-6l-1 -33l-82 -97l-78 3l-71 103l-1 16l4 50l43 332l7 133 l-208 -58zM-29 728l53 4l51 25l21 96l-72 -58zM231 784l288 47l-107 31l-82 17l-94 5zM807 496q96 -770 192 -774l25 -1l11 199q-72 603 -226 609z" />
<glyph unicode="i" horiz-adv-x="994" d="M-254 -29l60 70q38 -101 147 -102q7 0 14 1l22 1q431 25 431 301q0 16 -1 32l12 112l-7 89l-2 22l28 445q-454 138 -522 237l83 49q330 -131 439 -131h9q21 90 188 99l22 2l47 -42l-32 -135l111 -15l282 16l47 -43l-170 -54l-305 -17l-50 -690l22 2q280 192 507 205 l152 9l2 -23q4 -49 -256 -80l-415 -246l23 -21l2 -21l-80 -93l-65 -3l-70 41q-266 -105 -405 -113l-63 -3q-16 -1 -30 -1q-140 0 -175 79zM115 1600l184 -50l9 -1l1 8q-49 87 -49 123v5l4 24q71 147 121 147h4q238 -84 238 -198q0 -8 -1 -15q18 -3 44 -161l9 -1 q186 102 353 102q36 0 71 -5l28 -4q164 -57 164 -126q0 -4 -1 -8l-3 -17q-82 -100 -163 -115q-87 -21 -248 -26l-258 -8q-6 -41 -67 -41q-15 0 -34 3l-63 26l-276 11l2 9l-11 -7l-9 1q-318 114 -318 169q0 123 269 155zM3 1437q-1 -13 163 -83q266 1 267 18l-245 108l-39 4 q-9 1 -19 1q-70 0 -127 -48zM368 1685q-6 -58 132 -209v-5q0 -41 61 -52l11 8v8q-55 305 -160 314l-42 -38zM778 1408l17 -19l19 -1q24 -2 48 -2q155 0 312 95l-17 20l-50 11l-53 -1q-180 -24 -275 -95z" />
<glyph unicode="j" horiz-adv-x="1107" d="M-75 1248q2 139 241 207l182 -32h9l1 9q-63 99 -62 137l1 28q53 182 102 182h1q255 -67 252 -207q18 -1 61 -175h9q199 166 387 166h9h28q173 -44 172 -129l-1 -19q-67 -124 -143 -152q-82 -34 -191 -63l-9 -10l-36 11l-247 -44q-1 -56 -86 -56h-6l-64 20l-267 -24l1 10 l-10 -10h-9q-327 88 -325 151zM66 12q4 177 383 446l46 18v-9q-113 -142 -251 -198q-37 -50 -38 -105l-1 -58q-3 -188 314 -342l219 -24q225 7 274 25v6q0 223 -280 653q-150 309 -149 368l47 78l1 19h-9h-3q-125 0 -476 -174l-10 -10h-9q137 216 619 325q252 67 514 67h36 h28l17 -20q-125 -131 -166 -131h-1h-18q-397 -2 -431 -40q31 -180 370 -748q59 -176 59 -274v-6q-1 -72 -232 -246q-149 -43 -309 -43h-21q-409 24 -515 366zM71 1284q0 -15 163 -80q257 25 257 44l-245 100l-37 1h-5q-77 0 -133 -65zM406 1595q-2 -66 143 -224 q-1 -52 62 -59l10 10v9q-75 339 -177 341l-38 -47v-30zM822 1319l17 -20h18h7q170 0 335 137l-19 21l-49 7l-51 -5q-172 -42 -258 -131v-9z" />
<glyph unicode="k" horiz-adv-x="1279" d="M-49 1604q80 75 165 81l26 -20l7 -80l48 -439q8 -22 8 -45t-8 -48l14 -76l722 567q260 177 419 247q51 -13 52 -31v-11q-5 -26 -312 -205q-267 -185 -378 -302q299 -133 459 -133q14 0 28 1q98 -5 101 -38q-50 -39 -189 -83l-121 -9h-7q-86 0 -431 137l-321 -252l18 -78 l4 -42q-3 -28 -3 -56q0 -39 6 -78l9 -63l11 -88q46 -255 91 -367v-8q0 -80 -161 -106l-12 -1l-38 20q-68 677 -199 1516z" />
<glyph unicode="l" horiz-adv-x="910" d="M-107 22q130 230 231 583l35 138l12 92l8 71l15 136v87l2 55l4 114l-5 53l-5 43q-41 206 -128 257l-7 26l8 2q17 23 95 44q4 1 9 1q59 0 123 -145l29 -109l23 -102l4 -82l5 -63v-65l-6 -102l-9 -121q-18 -139 -49 -279q-94 -295 -185 -471l-17 -38v-10l15 3l66 22l124 41 l44 8l7 2h39q209 0 236 -20l270 -109q-1 -23 77 -55l8 1l1 9l2 54l-13 50l3 80q22 27 75 76q36 -10 36 -42q0 -7 -2 -14q67 -335 188 -386l6 -34q-48 -46 -74 -51l-66 -12q-95 81 -225 152q-164 115 -305 162l-7 8q-22 8 -151 42q-28 3 -159 4l-99 -36l-223 -93l-15 -2l-7 7 l-7 -10l-8 -2z" />
<glyph unicode="m" horiz-adv-x="1459" d="M-204 1758q22 30 89 49l40 16q205 -53 214 -68l-3 -42l1 -9q41 -61 153.5 -197t139.5 -163t72 -76q85 -62 89 -97l17 3q57 74 156 120q67 46 211 95l175 98q105 72 225 186l54 40l80 39q52 -2 54 -17l3 -24q-170 -209 -168 -380q-2 -26 -3 -61q0 -158 45 -497 q75 -578 172 -611l3 -53l-39 -29l-44 -17l-59 4q-34 0 -87 72q-48 103 -97 283l-19 143l-37 216l-7 59l-7 118q-10 73 -10 174q0 128 16 298q-346 -153 -430 -242q-55 -82 -55 -155q0 -13 2 -25l3 -25q41 -78 176 -237q51 -45 104 -136q37 -35 94 -139l2 -17q3 -20 -163 -62 q-119 16 -193 106q-181 205 -202 336l-12 56l-2 17l-10 76q-74 125 -385 458l-8 -1l5 -42l3 -48l11 -53l-2 -101l12 -125l5 -82l8 -140l27 -250l13 -131l25 -155l33 -109l51 -81l105 -112q-46 -51 -152 -51q-29 0 -63 4q-7 -1 -13 -1q-34 0 -60 30l-30 226l-18 143l-17 126 l-14 109l-19 151l-5 33l-14 110l-42 326l-27 407q-56 58 -169 117z" />
<glyph unicode="n" horiz-adv-x="1095" d="M-216 1333q85 86 138 89q209 -130 505 -455l176 -220l41 -60q59 -69 83.5 -98t51.5 -62l13 1l-15 361l-6 134l8 125q21 98 43 188q153 349 317 395q298 136 634 151l13 -9v-11q-286 -66 -540 -164q-154 -63 -223 -272q-68 -180 -68 -472q0 -58 3 -119l17 -103l2 -31 l6 -155q10 -237 108 -419v-6q0 -99 -174 -105l-13 -1q-30 -1 -99 203l-340 461q-63 46 -121 140l-13 -1q46 -91 57 -121.5t61 -245.5l1 -21v-10l50 -256v-16q0 -189 -207 -250l-51 -3l-53 39q-2 64 136 140l7 114l-2 51q-25 577 -531 1053z" />
<glyph unicode="o" horiz-adv-x="991" d="M-177 -274q-1 6 -1 12q0 62 76 173l20 319h-9q-48 0 -55 64l27 21l18 2q7 1 14 1q91 0 108 -146l-9 -10l1 -9l19 2l64 114l-5 43l-1 9l-60 100l-14 42l-2 17l-12 39l-6 38q-18 64 -33 129l-12 105l-8 70l-6 52l-17 227q51 339 206 466q165 107 368 131q28 3 56 3 q238 0 413 -242q48 -87 60 -196q1 -6 1 -12q0 -76 -123 -90l45 -233l8 -70l38 4q40 5 68 5q66 0 69 -25l2 -17q4 -35 -125 -85l-38 -5l1 -8q-23 -718 -478 -769l-9 -1h-6q-148 0 -310 157l-9 -1q-16 -2 -31 -57l23 -41l-36 -22l1 -9q49 6 88 6q133 0 140 -67l-9 -10l-9 -1 l-1 9l-8 -10l-10 -1l-126 12q-187 -21 -231 -238l-54 -33q-63 16 -71 36zM12 -5l1 -9l9 1l65 25l-51 29l-19 -2zM101 976l14 -122q63 -403 103 -403h1q103 207 594 421l-1 8l-10 8l-1 9l-6 53l-5 43l-5 54q-37 143 -90 332l-4 19l-29 48q-79 178 -140 178h-5q-24 16 -75 16 q-11 0 -23 -1l-85 -10q-123 -14 -221 -334q-19 -94 -19 -194q0 -61 7 -125zM254 1073q-1 8 -1 17q0 74 80 134l27 3h1q21 0 36 -85q15 -187 15 -279q0 -89 -14 -91l-44 -33q-63 5 -65 29l-14 122l-2 18zM264 306l81 -115q124 -119 188 -119h7q93 27 162 178l25 37l-1 9 l22 56q51 225 59 325l10 80l-11 8q-227 -26 -486 -356q-60 -68 -56 -103zM469 1115q17 109 101 118l50 -13q15 -253 15 -351q0 -61 -6 -62q-97 9 -107 93z" />
<glyph unicode="p" horiz-adv-x="1099" d="M-410 303q182 133 208 429l23 16q9 -65 9 -114q0 -105 -41 -135l11 -17l75 36l104 20l-246 -141l-4 -5l-117 -122zM-172 510q94 196 274 450l-38 472h-6l-40 -7q-38 1 -38 181v36l27 23l14 -1q10 0 24 -56l18 -16l134 68h7l30 -56l-7 -40l4 -48l53 -1l91 -3l193 54 q170 77 350 150q92 54 182 62q38 -44 58 -109l17 -85l22 -80l17 -100q9 -66 9 -129q0 -145 -46 -280l-19 -67q-40 -47 -83 -69q-54 24 -118 64q-36 47 -237 133l-90 14h-120h-13q-90 0 -165 -27l-48 -21l-13 -35q16 -172 16 -364q0 -88 -3 -180l-20 -391q-20 -30 -108 -30 h-11l-46 1q-25 13 -25 26l1 7l47 415l5 127l-17 257h-7zM241 1412l22 -297q73 43 173 68q24 15 210 27q204 -29 318 -96l39 -8q47 87 47 189q0 83 -32 176l-33 59h-6l-264 -57q-235 -63 -370 -63h-12z" />
<glyph unicode="q" horiz-adv-x="1363" d="M-4 1051q0 565 338 701q133 72 226 72h52q338 -45 338 -297v-13q0 -35 -41 -35v-12q287 -335 287 -702q0 -125 -72 -392l62 -72v-12q-32 -96 -93 -96l-61 49q0 -24 -30 -24v-12q205 -143 276 -166v11q-20 60 -20 214v24q0 269 133 452h10q-72 -221 -72 -393v-35 q0 -327 144 -428l51 -59v-11q0 -67 -61 -108h-41q-21 0 -103 155q-380 212 -380 297q-222 -96 -348 -96q-200 0 -431 298q-164 277 -164 690zM160 1062q48 -416 154 -595q200 -308 471 -308q135 104 135 178q-268 178 -288 214v12q10 176 51 190h20q177 -109 288 -226 l20 191q1 15 1 30q0 102 -31 184h10q-76 262 -308 488l-246 238v11l21 36v12h-42q-161 0 -256 -511v-84v-60zM376 1122q27 95 51 95h31q28 0 40 -249q-15 -48 -30 -48h-21q-35 0 -71 202zM540 1181q27 79 61 95h31q28 0 41 -214v-35q-17 -48 -72 -48q-33 0 -61 202z M1586 -364q33 118 62 143h30l31 -36v-24q-52 -79 -103 -108z" />
<glyph unicode="r" horiz-adv-x="1024" d="M-95 606l93 70l8 1h1q39 0 131 -271l9 1l-40 351l-10 71l-10 70l1 59l-70 431l-19 69q212 320 353 335l27 3q16 2 32 2q205 0 436 -282q61 -104 70 -170q5 -33 5 -65q0 -293 -400 -501l-53 -17q6 -42 537 -108q275 -90 362 -90q7 0 13 1l54 18l23 -33l2 -12 q4 -28 -100 -81q-498 -636 -579 -644q-101 -71 -166 -78q-4 -1 -9 -1q-71 0 -105 142q-7 51 -7 99q0 304 291 465l46 5l21 -20l3 -24q-9 -47 -202 -153q-39 -140 -39 -224q0 -22 3 -40q30 -155 91 -156q3 0 5 1q69 8 543 640q-425 119 -823 158q-107 48 -185 51l10 -70 l46 -516q-100 -94 -135 -98l-19 -2q-161 483 -238 566zM128 1461l105 -605l117 -35q466 51 471 419l-3 23q-26 179 -292 348q-133 59 -212 59q-11 0 -20 -1q-158 -39 -158 -184q0 -11 1 -23zM236 1425l28 3l44 -246l23 -166l-9 -1q-28 -3 -86 410z" />
<glyph unicode="s" horiz-adv-x="920" d="M-148 1348q65 337 494 344l65 -14q219 -47 419 -410l13 68l15 80l15 127q46 240 91 240h4q31 20 65 20q13 0 26 -3l6 -13l10 -2l-45 -133l-22 -115q-90 -468 -118 -817l-9 -46q-6 -31 -123 -33l-10 2l-23 30l25 77l6 34q11 56 11 113q0 252 -208 535q-101 127 -258 175 l-29 7q-38 8 -71 8q-190 0 -240 -262l-2 -12q-4 -21 -4 -42q0 -196 345 -411q594 -468 656 -748l15 -122q-46 -238 -463 -238q-47 0 -99 3l-46 10q-154 34 -235 253q-18 37 -18 117q0 24 2 52q22 111 281 112q15 0 32 -1l8 -13l-2 -12q-12 -63 -97 -63h-12q-11 1 -21 1 q-77 0 -84 -35q-5 -28 -6 -54q0 -176 230 -302l57 -12q47 -10 88 -10q165 0 252 161q4 22 4 46q0 240 -425 651q-322 248 -504 417q-64 132 -64 210q0 16 3 30z" />
<glyph unicode="t" horiz-adv-x="1331" d="M-246 1638q88 64 265 71l207 7l49 2l290 -20q107 -17 287 -17q86 0 189 4l287 11l276 30l22 -30l1 -20q-122 -69 -157 -210q-117 -429 -136 -442l-49 -12q-45 14 -72 58l-4 61q35 290 133 494l-80 -3l-78 -3l-89 -13l-198 -8l-90 7l-14 -111l-11 -82l6 -89l-2 -89v-71 q2 -76 2 -132.5t-2 -93.5l10 -99l-3 -75l2 -86l8 -100l7 -104l12 -64l25 -119l34 -86l72 -153l-122 -24l-55 -16l-72 -25q-42 53 -81 409l-7 135l-17 244l9 220l1 148l4 101l2 119l-2 165q-5 79 -71 79h-3l-486 12l-49 -1q272 -281 283 -479q-58 -43 -117 -45h-10 q-26 -1 -69 181q-66 135 -283 315h-4q-47 0 -50 49z" />
<glyph unicode="u" horiz-adv-x="955" d="M-131 -57l1 22q132 174 241 1034l14 205l-9 135l-8 241l95 30q73 -11 73 -31q0 -129 -36 -366l-12 -135v-53l-7 -162q-20 -287 -31 -307l-89 -428q362 108 569 108h7l32 -1l239 -23l1 10q-221 300 -244 557q-19 92 -19 207v12l2 168q2 165 106 165h1l32 10q40 0 50 -220 l-1 -94v-27q0 -678 443 -858q-32 -45 -47 -88q-26 -29 -63 -29q-26 0 -56 14q-290 122 -602 126h-8q-235 0 -433 -182q-1 -63 -209 -82zM310 534l77 14l38 -32l2 -82l-20 -24l-76 -12l-18 16zM528 551l78 11l37 -33v-82l-21 -24l-76 -9l-17 16z" />
<glyph unicode="v" horiz-adv-x="1057" d="M-306 1042q2 36 174 223l45 17l66 -9l9 -97q68 20 102 20q29 0 34 -14q-5 -13 -5 -30q0 -29 14 -68l-10 -4q67 -193 446 -695l144 -159l11 4q-27 77 -27 221q0 299 116 890q58 134 173 223l-13 74q-178 -202 -292 -245q-50 -2 -56 13l-13 39l39 71q21 8 31 -21l15 -6 l11 4q117 44 305 318l75 39l36 -31q-17 -68 -17 -131q0 -73 23 -137q72 -205 197 -273l-8 -14l-11 -4q-20 -8 -41 -8q-113 0 -250 224q-64 -25 -108 -480q-37 -287 -37 -443q0 -115 20 -158v-34l87 -214l79 -116q6 -17 -109 -119l-56 -21h-3q-48 0 -316 260 q-492 576 -582 835l-21 59l-12 -4l-70 -50q-7 21 -40 8l-15 6l-4 10l-16 84l-23 -9l-63 -70l-30 12z" />
<glyph unicode="w" horiz-adv-x="1250" d="M-133 1084q-1 3 -1 6q0 31 104 92l73 22q269 -448 351 -697l9 -67l8 -26l33 -18l-9 480l-157 354q-2 5 -2 11q0 52 142 139l25 7q4 1 8 1q41 0 99 -121q40 -120 67 -408q39 -117 359 -310q-58 255 -58 451q0 44 3 85q139 279 539 582l-4 12q-31 -9 -62 -9q-85 0 -174 66 l-4 12l33 65q77 -49 165 -49q50 0 103 16l211 60q3 1 7 1q25 0 50 -53l-136 -122q-80 -184 -80 -334q0 -80 23 -150l4 -13l37 -30l-8 -17l-12 -3q-6 -2 -13 -2q-48 0 -103 106q-10 50 -10 111q0 115 35 268l-25 -7q-453 -337 -453 -591q0 -44 14 -86l120 -613l79 -198 q-34 -50 -161 -87l-17 9l-8 25l-25 159q-57 173 -433 411q-9 -548 -40 -824l-83 -37l-86 -25q-3 -1 -7 -1q-25 0 -51 53q15 14 15 58q0 145 -156 617q-113 343 -334 606z" />
<glyph unicode="x" horiz-adv-x="1271" d="M-311 -94l110 197l187 24q298 55 469 670q-293 478 -318 633q69 204 156 220l25 5l13 -81q183 -407 290 -532q172 243 453 442l-2 11l-12 -2l-50 -9l-133 -49q-64 4 -68 24q336 142 408 253l37 7l20 -44q-64 -235 -64 -370q0 -25 2 -47l-25 -4l-17 104l-11 70 q-153 -175 -378 -357l-105 -138q104 -236 666 -736q-98 -185 -160 -197h-2q-59 0 -524 500l-115 158l-25 -5q-32 -200 -344 -647q-146 -110 -372 -151l-12 -3l-15 10l-10 -14l-13 -3q-53 14 -61 61zM-29 951l34 40l27 5l62 -35l3 -21l-35 -40l-14 -3l-76 42zM-6 1238l24 27 l26 5q41 -3 318 -519l-11 -14l-14 -2q-71 57 -324 472l-16 9z" />
<glyph unicode="y" horiz-adv-x="962" d="M-216 -56q192 78 192 203q0 12 -2 24q19 3 19 43q0 18 -4 44q33 76 57 79l14 2q28 3 33 -32q2 -12 2 -25q0 -74 -53 -198l27 3q210 26 241 162q33 149 253 176l13 2q94 -45 113 -107l14 1l-40 273l-15 203q-124 -196 -398 -230q-13 -2 -25 -2q-251 0 -415 636l-14 94 q-6 38 -6 68q0 100 64 108l121 28l30 -22l2 -204q65 -442 312 -613l28 4q185 161 242 535l-49 236q-15 101 -15 173q0 162 76 171l81 23l54 6l31 -20l31 -214l10 -444l126 -865q29 -198 245 -632q-50 -31 -146 -43l-42 -5q-27 -3 -207 373q-189 236 -295 301q1 -5 1 -9 q0 -110 -397 -232l2 -12h7q55 0 159 -88l-24 -27h-9q-53 0 -181 61l-95 -12q-51 -54 -103 -60q-58 17 -65 64z" />
<glyph unicode="z" horiz-adv-x="1251" d="M138 -71q216 562 414 840l-10 52q76 0 287 410q62 68 223 368q-345 -244 -691 -662q-36 -21 -149 -31l-21 21q21 83 53 641q57 42 96 42l85 -21q-43 -207 -43 -400v-42q717 673 914 673h11l32 -32v-10q-151 -171 -489 -778v-10h11l42 10l32 -31q-6 -32 -149 -74 q-340 -536 -340 -620h11q203 168 425 168q109 0 297 -73v10q-53 138 -53 305v31l43 42q18 0 63 -241q150 -316 309 -316l31 -42l-42 -42h-32q-107 0 -212 63q-163 -61 -266 -241h-21v11q0 87 233 272q-238 148 -446 148q-131 0 -340 -253q-134 -220 -180 -220h-43l-53 -11 h-11l-21 22v21z" />
<glyph unicode="{" horiz-adv-x="684" />
<glyph unicode="|" horiz-adv-x="532" />
<glyph unicode="}" horiz-adv-x="684" />
<glyph unicode="~" horiz-adv-x="1196" />
<glyph unicode="&#xa1;" horiz-adv-x="682" />
<glyph unicode="&#xa2;" />
<glyph unicode="&#xa3;" />
<glyph unicode="&#xa4;" />
<glyph unicode="&#xa5;" />
<glyph unicode="&#xa6;" horiz-adv-x="532" />
<glyph unicode="&#xa7;" />
<glyph unicode="&#xa8;" horiz-adv-x="682" />
<glyph unicode="&#xa9;" horiz-adv-x="1509" />
<glyph unicode="&#xaa;" horiz-adv-x="758" />
<glyph unicode="&#xab;" />
<glyph unicode="&#xac;" horiz-adv-x="1196" />
<glyph unicode="&#xad;" horiz-adv-x="636" d="M-100 827q-4 27 125 47q547 42 552 7l49 -54q-6 -79 -42 -82l-181 -19l-27 -3l-245 -26q-125 -13 -226 96z" />
<glyph unicode="&#xae;" horiz-adv-x="1509" />
<glyph unicode="&#xaf;" horiz-adv-x="1131" />
<glyph unicode="&#xb0;" horiz-adv-x="819" />
<glyph unicode="&#xb1;" horiz-adv-x="1124" />
<glyph unicode="&#xb2;" horiz-adv-x="682" />
<glyph unicode="&#xb3;" horiz-adv-x="682" />
<glyph unicode="&#xb4;" horiz-adv-x="682" />
<glyph unicode="&#xb5;" horiz-adv-x="1180" />
<glyph unicode="&#xb6;" horiz-adv-x="1100" />
<glyph unicode="&#xb7;" horiz-adv-x="569" />
<glyph unicode="&#xb8;" horiz-adv-x="682" />
<glyph unicode="&#xb9;" horiz-adv-x="682" />
<glyph unicode="&#xba;" horiz-adv-x="748" />
<glyph unicode="&#xbb;" />
<glyph unicode="&#xbc;" horiz-adv-x="1708" />
<glyph unicode="&#xbd;" horiz-adv-x="1708" />
<glyph unicode="&#xbe;" horiz-adv-x="1708" />
<glyph unicode="&#xbf;" horiz-adv-x="1251" />
<glyph unicode="&#xc0;" horiz-adv-x="1366" />
<glyph unicode="&#xc1;" horiz-adv-x="1366" />
<glyph unicode="&#xc2;" horiz-adv-x="1366" />
<glyph unicode="&#xc3;" horiz-adv-x="1366" />
<glyph unicode="&#xc4;" horiz-adv-x="1366" />
<glyph unicode="&#xc5;" horiz-adv-x="1366" />
<glyph unicode="&#xc6;" horiz-adv-x="2048" />
<glyph unicode="&#xc7;" horiz-adv-x="1479" />
<glyph unicode="&#xc8;" horiz-adv-x="1366" />
<glyph unicode="&#xc9;" horiz-adv-x="1366" />
<glyph unicode="&#xca;" horiz-adv-x="1366" />
<glyph unicode="&#xcb;" horiz-adv-x="1366" />
<glyph unicode="&#xcc;" horiz-adv-x="569" />
<glyph unicode="&#xcd;" horiz-adv-x="569" />
<glyph unicode="&#xce;" horiz-adv-x="569" />
<glyph unicode="&#xcf;" horiz-adv-x="569" />
<glyph unicode="&#xd0;" horiz-adv-x="1479" />
<glyph unicode="&#xd1;" horiz-adv-x="1479" />
<glyph unicode="&#xd2;" horiz-adv-x="1593" />
<glyph unicode="&#xd3;" horiz-adv-x="1593" />
<glyph unicode="&#xd4;" horiz-adv-x="1593" />
<glyph unicode="&#xd5;" horiz-adv-x="1593" />
<glyph unicode="&#xd6;" horiz-adv-x="1593" />
<glyph unicode="&#xd7;" horiz-adv-x="1196" />
<glyph unicode="&#xd8;" horiz-adv-x="1593" />
<glyph unicode="&#xd9;" horiz-adv-x="1479" />
<glyph unicode="&#xda;" horiz-adv-x="1479" />
<glyph unicode="&#xdb;" horiz-adv-x="1479" />
<glyph unicode="&#xdc;" horiz-adv-x="1479" />
<glyph unicode="&#xdd;" horiz-adv-x="1366" />
<glyph unicode="&#xde;" horiz-adv-x="1366" />
<glyph unicode="&#xdf;" horiz-adv-x="1251" />
<glyph unicode="&#xe0;" />
<glyph unicode="&#xe1;" />
<glyph unicode="&#xe2;" />
<glyph unicode="&#xe3;" />
<glyph unicode="&#xe4;" />
<glyph unicode="&#xe5;" />
<glyph unicode="&#xe6;" horiz-adv-x="1821" />
<glyph unicode="&#xe7;" horiz-adv-x="1024" />
<glyph unicode="&#xe8;" />
<glyph unicode="&#xe9;" />
<glyph unicode="&#xea;" />
<glyph unicode="&#xeb;" />
<glyph unicode="&#xec;" horiz-adv-x="569" />
<glyph unicode="&#xed;" horiz-adv-x="569" />
<glyph unicode="&#xee;" horiz-adv-x="569" />
<glyph unicode="&#xef;" horiz-adv-x="569" />
<glyph unicode="&#xf0;" />
<glyph unicode="&#xf1;" />
<glyph unicode="&#xf2;" />
<glyph unicode="&#xf3;" />
<glyph unicode="&#xf4;" />
<glyph unicode="&#xf5;" />
<glyph unicode="&#xf6;" />
<glyph unicode="&#xf7;" horiz-adv-x="1124" />
<glyph unicode="&#xf8;" horiz-adv-x="1251" />
<glyph unicode="&#xf9;" />
<glyph unicode="&#xfa;" />
<glyph unicode="&#xfb;" />
<glyph unicode="&#xfc;" />
<glyph unicode="&#xfd;" horiz-adv-x="1024" />
<glyph unicode="&#xfe;" />
<glyph unicode="&#xff;" horiz-adv-x="1024" />
<glyph unicode="&#x152;" horiz-adv-x="2048" />
<glyph unicode="&#x153;" horiz-adv-x="1933" />
<glyph unicode="&#x178;" horiz-adv-x="1366" />
<glyph unicode="&#x2c6;" horiz-adv-x="682" />
<glyph unicode="&#x2dc;" horiz-adv-x="682" />
<glyph unicode="&#x2000;" horiz-adv-x="941" />
<glyph unicode="&#x2001;" horiz-adv-x="1882" />
<glyph unicode="&#x2002;" horiz-adv-x="941" />
<glyph unicode="&#x2003;" horiz-adv-x="1882" />
<glyph unicode="&#x2004;" horiz-adv-x="627" />
<glyph unicode="&#x2005;" horiz-adv-x="470" />
<glyph unicode="&#x2006;" horiz-adv-x="313" />
<glyph unicode="&#x2007;" horiz-adv-x="313" />
<glyph unicode="&#x2008;" horiz-adv-x="235" />
<glyph unicode="&#x2009;" horiz-adv-x="376" />
<glyph unicode="&#x200a;" horiz-adv-x="104" />
<glyph unicode="&#x2010;" horiz-adv-x="636" d="M-100 827q-4 27 125 47q547 42 552 7l49 -54q-6 -79 -42 -82l-181 -19l-27 -3l-245 -26q-125 -13 -226 96z" />
<glyph unicode="&#x2011;" horiz-adv-x="636" d="M-100 827q-4 27 125 47q547 42 552 7l49 -54q-6 -79 -42 -82l-181 -19l-27 -3l-245 -26q-125 -13 -226 96z" />
<glyph unicode="&#x2012;" horiz-adv-x="636" d="M-100 827q-4 27 125 47q547 42 552 7l49 -54q-6 -79 -42 -82l-181 -19l-27 -3l-245 -26q-125 -13 -226 96z" />
<glyph unicode="&#x2013;" />
<glyph unicode="&#x2014;" horiz-adv-x="2048" />
<glyph unicode="&#x2018;" horiz-adv-x="455" />
<glyph unicode="&#x2019;" horiz-adv-x="455" />
<glyph unicode="&#x201a;" horiz-adv-x="455" />
<glyph unicode="&#x201c;" horiz-adv-x="682" />
<glyph unicode="&#x201d;" horiz-adv-x="682" />
<glyph unicode="&#x201e;" horiz-adv-x="682" />
<glyph unicode="&#x2022;" horiz-adv-x="717" />
<glyph unicode="&#x2026;" horiz-adv-x="2048" />
<glyph unicode="&#x202f;" horiz-adv-x="376" />
<glyph unicode="&#x2039;" horiz-adv-x="682" />
<glyph unicode="&#x203a;" horiz-adv-x="682" />
<glyph unicode="&#x205f;" horiz-adv-x="470" />
<glyph unicode="&#x20ac;" />
<glyph unicode="&#x2122;" horiz-adv-x="2048" />
<glyph unicode="&#x25fc;" horiz-adv-x="1720" d="M0 0v1720h1720v-1720h-1720z" />
</font>
</defs>
</svg>
